<mxfile host="app.diagrams.net" modified="2020-08-25T08:56:40.126Z" agent="5.0 (Windows NT 6.1; Win64; x64) AppleWebKit/537.36 (KHTML, like Gecko) Chrome/84.0.4147.125 Safari/537.36" etag="j2QeHnsyCR074IOcjk16" version="13.6.5" type="github">
  <diagram name="Page-1" id="efa7a0a1-bf9b-a30e-e6df-94a7791c09e9">
    <mxGraphModel dx="2011" dy="1864" grid="1" gridSize="10" guides="1" tooltips="1" connect="1" arrows="1" fold="1" page="1" pageScale="1" pageWidth="826" pageHeight="1169" background="#ffffff" math="0" shadow="0">
      <root>
        <mxCell id="0" />
        <mxCell id="1" parent="0" />
        <mxCell id="54" value="" style="endArrow=open;endSize=12;startArrow=diamondThin;startSize=14;startFill=0;edgeStyle=orthogonalEdgeStyle;exitX=0;exitY=0.25;rounded=0" parent="1" edge="1">
          <mxGeometry x="619.3599999999999" y="-560" as="geometry">
            <mxPoint x="580" y="-7.5" as="sourcePoint" />
            <mxPoint x="370" y="-120" as="targetPoint" />
          </mxGeometry>
        </mxCell>
        <mxCell id="113" value="" style="endArrow=block;endFill=1;edgeStyle=orthogonalEdgeStyle;align=left;verticalAlign=top;rounded=0;exitX=1.001;exitY=0.181;exitDx=0;exitDy=0;exitPerimeter=0;" parent="1" source="JiKQCjY56IyEee9I5rJB-123" target="JiKQCjY56IyEee9I5rJB-124" edge="1">
          <mxGeometry x="-1" relative="1" as="geometry">
            <mxPoint x="-330" y="-1050" as="sourcePoint" />
            <mxPoint x="-460" y="-1090" as="targetPoint" />
            <Array as="points">
              <mxPoint x="-470" y="-1077" />
              <mxPoint x="-470" y="-1077" />
            </Array>
          </mxGeometry>
        </mxCell>
        <mxCell id="JiKQCjY56IyEee9I5rJB-132" style="edgeStyle=orthogonalEdgeStyle;rounded=0;orthogonalLoop=1;jettySize=auto;html=1;entryX=0.5;entryY=0;entryDx=0;entryDy=0;" edge="1" parent="1" source="JiKQCjY56IyEee9I5rJB-122" target="JiKQCjY56IyEee9I5rJB-131">
          <mxGeometry relative="1" as="geometry" />
        </mxCell>
        <mxCell id="JiKQCjY56IyEee9I5rJB-122" value="&lt;p style=&quot;margin: 0px ; margin-top: 4px ; text-align: center ; text-decoration: underline&quot;&gt;&lt;b&gt;qtbl_OpticalTeam&lt;/b&gt;&lt;/p&gt;&lt;hr&gt;&lt;p style=&quot;margin: 0px ; margin-left: 8px&quot;&gt;teamName&lt;/p&gt;&lt;p style=&quot;margin: 0px ; margin-left: 8px&quot;&gt;teamId&lt;/p&gt;" style="verticalAlign=top;align=left;overflow=fill;fontSize=12;fontFamily=Helvetica;html=1;strokeColor=#003366;shadow=1;fillColor=#D4E1F5;fontColor=#003366" vertex="1" parent="1">
          <mxGeometry x="-290" y="-1118.48" width="110" height="73.04" as="geometry" />
        </mxCell>
        <mxCell id="JiKQCjY56IyEee9I5rJB-123" value="&lt;p style=&quot;margin: 0px ; margin-top: 4px ; text-align: center ; text-decoration: underline&quot;&gt;&lt;strong&gt;tbl_User&lt;/strong&gt;&lt;/p&gt;&lt;hr&gt;&lt;p style=&quot;margin: 0px ; margin-left: 8px&quot;&gt;sUserID&lt;/p&gt;&lt;p style=&quot;margin: 0px ; margin-left: 8px&quot;&gt;sUserName&lt;/p&gt;&lt;p style=&quot;margin: 0px ; margin-left: 8px&quot;&gt;sPwd&lt;/p&gt;&lt;p style=&quot;margin: 0px ; margin-left: 8px&quot;&gt;sExtension&lt;/p&gt;&lt;p style=&quot;margin: 0px ; margin-left: 8px&quot;&gt;sGrpID&lt;/p&gt;&lt;p style=&quot;margin: 0px ; margin-left: 8px&quot;&gt;sStatus&lt;/p&gt;&lt;p style=&quot;margin: 0px ; margin-left: 8px&quot;&gt;dTimestamp&lt;/p&gt;&lt;p style=&quot;margin: 0px ; margin-left: 8px&quot;&gt;sDepartmentId&lt;/p&gt;&lt;p style=&quot;margin: 0px ; margin-left: 8px&quot;&gt;dProbatAmt&lt;/p&gt;&lt;p style=&quot;margin: 0px ; margin-left: 8px&quot;&gt;bProbation&lt;/p&gt;&lt;p style=&quot;margin: 0px ; margin-left: 8px&quot;&gt;sEteStaffNo&lt;/p&gt;&lt;p style=&quot;margin: 0px ; margin-left: 8px&quot;&gt;sBrandGroup&lt;/p&gt;&lt;p style=&quot;margin: 0px ; margin-left: 8px&quot;&gt;dNumberOfOrderAllow&lt;/p&gt;&lt;p style=&quot;margin: 0px ; margin-left: 8px&quot;&gt;sEmail&lt;/p&gt;" style="verticalAlign=top;align=left;overflow=fill;fontSize=12;fontFamily=Helvetica;html=1;strokeColor=#003366;shadow=1;fillColor=#D4E1F5;fontColor=#003366" vertex="1" parent="1">
          <mxGeometry x="-640" y="-1120" width="140" height="238.36" as="geometry" />
        </mxCell>
        <mxCell id="JiKQCjY56IyEee9I5rJB-124" value="&lt;p style=&quot;margin: 0px ; margin-top: 4px ; text-align: center ; text-decoration: underline&quot;&gt;&lt;b&gt;qtbl_TeamMember&lt;/b&gt;&lt;/p&gt;&lt;hr&gt;&lt;p style=&quot;margin: 0px ; margin-left: 8px&quot;&gt;userId&lt;/p&gt;&lt;p style=&quot;margin: 0px ; margin-left: 8px&quot;&gt;teamId&lt;/p&gt;" style="verticalAlign=top;align=left;overflow=fill;fontSize=12;fontFamily=Helvetica;html=1;strokeColor=#003366;shadow=1;fillColor=#D4E1F5;fontColor=#003366" vertex="1" parent="1">
          <mxGeometry x="-450" y="-1118.48" width="110" height="70" as="geometry" />
        </mxCell>
        <mxCell id="JiKQCjY56IyEee9I5rJB-125" value="&lt;p style=&quot;margin: 0px ; margin-top: 4px ; text-align: center ; text-decoration: underline&quot;&gt;&lt;b&gt;tbl_Group&lt;/b&gt;&lt;/p&gt;&lt;hr&gt;&lt;p style=&quot;margin: 0px ; margin-left: 8px&quot;&gt;sGrpID&lt;/p&gt;&lt;p style=&quot;margin: 0px ; margin-left: 8px&quot;&gt;sGrpName&lt;/p&gt;&lt;p style=&quot;margin: 0px 0px 0px 8px&quot;&gt;dGrpAmt&lt;/p&gt;&lt;p style=&quot;margin: 0px 0px 0px 8px&quot;&gt;tTimestamp&lt;/p&gt;" style="verticalAlign=top;align=left;overflow=fill;fontSize=12;fontFamily=Helvetica;html=1;strokeColor=#003366;shadow=1;fillColor=#D4E1F5;fontColor=#003366" vertex="1" parent="1">
          <mxGeometry x="-790" y="-1060" width="110" height="100" as="geometry" />
        </mxCell>
        <mxCell id="JiKQCjY56IyEee9I5rJB-126" value="&lt;p style=&quot;margin: 0px ; margin-top: 4px ; text-align: center ; text-decoration: underline&quot;&gt;&lt;b&gt;tbl_Department&lt;/b&gt;&lt;/p&gt;&lt;hr&gt;&lt;p style=&quot;margin: 0px 0px 0px 8px&quot;&gt;sDepartmemtID&lt;/p&gt;&lt;p style=&quot;margin: 0px 0px 0px 8px&quot;&gt;sDeptCode&lt;/p&gt;&lt;p style=&quot;margin: 0px 0px 0px 8px&quot;&gt;sDesc&lt;/p&gt;&lt;p style=&quot;margin: 0px 0px 0px 8px&quot;&gt;sDeptype&lt;/p&gt;" style="verticalAlign=top;align=left;overflow=fill;fontSize=12;fontFamily=Helvetica;html=1;strokeColor=#003366;shadow=1;fillColor=#D4E1F5;fontColor=#003366" vertex="1" parent="1">
          <mxGeometry x="-790" y="-940" width="110" height="100" as="geometry" />
        </mxCell>
        <mxCell id="JiKQCjY56IyEee9I5rJB-128" style="edgeStyle=orthogonalEdgeStyle;rounded=0;orthogonalLoop=1;jettySize=auto;html=1;entryX=-0.015;entryY=0.42;entryDx=0;entryDy=0;entryPerimeter=0;" edge="1" parent="1" source="JiKQCjY56IyEee9I5rJB-125" target="JiKQCjY56IyEee9I5rJB-123">
          <mxGeometry relative="1" as="geometry">
            <Array as="points">
              <mxPoint x="-670" y="-1020" />
              <mxPoint x="-670" y="-1020" />
            </Array>
          </mxGeometry>
        </mxCell>
        <mxCell id="JiKQCjY56IyEee9I5rJB-129" value="" style="endArrow=block;endFill=1;edgeStyle=orthogonalEdgeStyle;align=left;verticalAlign=top;rounded=0;exitX=1;exitY=0.4;exitDx=0;exitDy=0;exitPerimeter=0;" edge="1" parent="1" source="JiKQCjY56IyEee9I5rJB-126" target="JiKQCjY56IyEee9I5rJB-123">
          <mxGeometry x="-1" relative="1" as="geometry">
            <mxPoint x="-312" y="-930" as="sourcePoint" />
            <mxPoint x="-640" y="-980" as="targetPoint" />
            <Array as="points">
              <mxPoint x="-660" y="-900" />
              <mxPoint x="-660" y="-980" />
            </Array>
          </mxGeometry>
        </mxCell>
        <mxCell id="JiKQCjY56IyEee9I5rJB-130" value="" style="endArrow=block;endFill=1;edgeStyle=orthogonalEdgeStyle;align=left;verticalAlign=top;rounded=0;entryX=0;entryY=0.75;entryDx=0;entryDy=0;" edge="1" parent="1" target="JiKQCjY56IyEee9I5rJB-122">
          <mxGeometry x="-1" relative="1" as="geometry">
            <mxPoint x="-340" y="-1060" as="sourcePoint" />
            <mxPoint x="-310" y="-1060" as="targetPoint" />
            <Array as="points">
              <mxPoint x="-340" y="-1064" />
            </Array>
          </mxGeometry>
        </mxCell>
        <mxCell id="JiKQCjY56IyEee9I5rJB-134" style="edgeStyle=orthogonalEdgeStyle;rounded=0;orthogonalLoop=1;jettySize=auto;html=1;" edge="1" parent="1" source="JiKQCjY56IyEee9I5rJB-131">
          <mxGeometry relative="1" as="geometry">
            <mxPoint x="-380" y="-850" as="targetPoint" />
          </mxGeometry>
        </mxCell>
        <mxCell id="JiKQCjY56IyEee9I5rJB-137" style="edgeStyle=orthogonalEdgeStyle;rounded=0;orthogonalLoop=1;jettySize=auto;html=1;exitX=1;exitY=0.5;exitDx=0;exitDy=0;" edge="1" parent="1" source="JiKQCjY56IyEee9I5rJB-131">
          <mxGeometry relative="1" as="geometry">
            <mxPoint x="-30" y="-850" as="targetPoint" />
          </mxGeometry>
        </mxCell>
        <mxCell id="JiKQCjY56IyEee9I5rJB-131" value="" style="rhombus;whiteSpace=wrap;html=1;" vertex="1" parent="1">
          <mxGeometry x="-275" y="-940" width="145" height="70" as="geometry" />
        </mxCell>
        <mxCell id="JiKQCjY56IyEee9I5rJB-136" value="Genernal Staff" style="text;html=1;strokeColor=none;fillColor=none;align=center;verticalAlign=middle;whiteSpace=wrap;rounded=0;" vertex="1" parent="1">
          <mxGeometry x="-350" y="-930" width="40" height="20" as="geometry" />
        </mxCell>
        <mxCell id="JiKQCjY56IyEee9I5rJB-138" value="Manager / Admin" style="text;html=1;strokeColor=none;fillColor=none;align=center;verticalAlign=middle;whiteSpace=wrap;rounded=0;" vertex="1" parent="1">
          <mxGeometry x="-130" y="-930" width="100" height="20" as="geometry" />
        </mxCell>
        <mxCell id="JiKQCjY56IyEee9I5rJB-139" value="&lt;p style=&quot;margin: 0px ; margin-top: 4px ; text-align: center ; text-decoration: underline&quot;&gt;&lt;strong&gt;Function&lt;/strong&gt;&lt;/p&gt;&lt;hr&gt;&lt;p style=&quot;margin: 0px ; margin-left: 8px&quot;&gt;- add new quotation&lt;/p&gt;&lt;p style=&quot;margin: 0px ; margin-left: 8px&quot;&gt;- read old quote from&amp;nbsp;&lt;/p&gt;&lt;p style=&quot;margin: 0px ; margin-left: 8px&quot;&gt;login user&lt;/p&gt;&lt;p style=&quot;margin: 0px ; margin-left: 8px&quot;&gt;- read login user profile&lt;/p&gt;&lt;p style=&quot;margin: 0px ; margin-left: 8px&quot;&gt;- read E catalogue&lt;/p&gt;" style="verticalAlign=top;align=left;overflow=fill;fontSize=12;fontFamily=Helvetica;html=1;strokeColor=#003366;shadow=1;fillColor=#D4E1F5;fontColor=#003366" vertex="1" parent="1">
          <mxGeometry x="-450" y="-850" width="140" height="130" as="geometry" />
        </mxCell>
        <mxCell id="JiKQCjY56IyEee9I5rJB-140" value="&lt;p style=&quot;margin: 0px ; margin-top: 4px ; text-align: center ; text-decoration: underline&quot;&gt;&lt;strong&gt;Function&lt;/strong&gt;&lt;/p&gt;&lt;hr&gt;&lt;p style=&quot;margin: 0px ; margin-left: 8px&quot;&gt;add new user&lt;/p&gt;&lt;p style=&quot;margin: 0px ; margin-left: 8px&quot;&gt;edit quotation&lt;/p&gt;&lt;p style=&quot;margin: 0px ; margin-left: 8px&quot;&gt;edit product details&lt;/p&gt;&lt;p style=&quot;margin: 0px ; margin-left: 8px&quot;&gt;&lt;br&gt;&lt;/p&gt;" style="verticalAlign=top;align=left;overflow=fill;fontSize=12;fontFamily=Helvetica;html=1;strokeColor=#003366;shadow=1;fillColor=#D4E1F5;fontColor=#003366" vertex="1" parent="1">
          <mxGeometry x="-100" y="-850" width="140" height="130" as="geometry" />
        </mxCell>
      </root>
    </mxGraphModel>
  </diagram>
</mxfile>
